<svg width="50" height="46" viewBox="0 0 50 46" fill="none" xmlns="http://www.w3.org/2000/svg">
<rect width="50" height="46" fill="#1E1E1E"/>
<g clip-path="url(#clip0_0_1)">
<rect width="1920" height="8089" transform="translate(-324 -2183)" fill="white"/>
<rect x="-23.5" y="-31.5" width="311" height="311" rx="3.5" fill="#EFF5F5" stroke="#E4D7D7"/>
<g clip-path="url(#clip1_0_1)">
<path d="M42.1094 7.66672H26.4844V5.29006C26.4844 4.44672 25.7813 0.766724 24.9219 0.766724C24.0625 0.766724 23.3594 4.44672 23.3594 5.29006V7.66672H7.73437C6.40625 7.66672 5.39062 8.66339 5.39062 9.89006C5.39062 11.1167 6.40625 12.1134 7.73437 12.1134C9.0625 12.1134 10.0781 11.1167 10.0781 9.89006C10.0781 9.73672 16.7188 12.8034 23.2813 12.9567V37.7967C19.6094 37.9501 16.7969 39.2534 16.7969 40.2501C16.7969 40.4034 16.875 40.6334 17.0313 40.7867H14.0625C13.4375 40.7867 12.9688 41.2467 12.9688 41.7834V44.2367C12.9688 44.7734 13.4375 45.2334 14.0625 45.2334H17.2656C17.8906 45.2334 18.3594 44.7734 18.3594 44.2367V43.7001H31.1719V44.2367C31.1719 44.7734 31.6406 45.2334 32.2656 45.2334H35.4688C36.0938 45.2334 36.5625 44.7734 36.5625 44.2367V41.7834C36.5625 41.2467 36.0938 40.7867 35.4688 40.7867H32.5C32.6562 40.6334 32.7344 40.4801 32.7344 40.2501C32.7344 39.2534 29.9219 37.9501 26.25 37.7967V12.9567C32.8906 12.8801 39.4531 9.81339 39.4531 9.89006C39.4531 11.1167 40.4688 12.1134 41.7969 12.1134C43.125 12.1134 44.1406 11.1167 44.1406 9.89006C44.4531 8.66339 43.4375 7.66672 42.1094 7.66672Z" stroke="#021C1B" stroke-width="2" stroke-linejoin="round"/>
<path d="M0.859375 32.2001L7.8125 12.1901L14.8437 32.8901" stroke="#021C1B" stroke-width="2" stroke-linejoin="round"/>
<path d="M35.1562 32.9667L42.1094 12.1901L49.2188 33.6567" stroke="#021C1B" stroke-width="2" stroke-linejoin="round"/>
<path d="M14.8438 32.5067C14.8438 33.9634 11.7188 35.2667 7.8125 35.2667C3.90625 35.2667 0.78125 33.9634 0.78125 32.5067C0.78125 31.05 14.8438 31.05 14.8438 32.5067Z" stroke="#021C1B" stroke-width="2" stroke-linejoin="round"/>
<path d="M49.1406 33.2734C49.1406 34.7301 46.0156 36.0334 42.1094 36.0334C38.2031 36.0334 35.0781 34.7301 35.0781 33.2734C35.1563 31.8167 49.1406 31.8167 49.1406 33.2734Z" stroke="#021C1B" stroke-width="2" stroke-linejoin="round"/>
</g>
</g>
<defs>
<clipPath id="clip0_0_1">
<rect width="1920" height="8089" fill="white" transform="translate(-324 -2183)"/>
</clipPath>
<clipPath id="clip1_0_1">
<rect width="50" height="46" fill="white"/>
</clipPath>
</defs>
</svg>
