<svg width="50" height="50" viewBox="0 0 50 50" fill="none" xmlns="http://www.w3.org/2000/svg">
<rect width="50" height="50" fill="#1E1E1E"/>
<g clip-path="url(#clip0_0_1)">
<rect width="1920" height="8089" transform="translate(-1332 -2183)" fill="white"/>
<rect x="-23.5" y="-31.5" width="311" height="311" rx="3.5" fill="#EFF5F5" stroke="#E4D7D7"/>
<path d="M32.8125 43.7511H31.6406V41.4073C31.6406 40.9755 31.2908 40.6261 30.8594 40.6261H19.1406C18.7092 40.6261 18.3594 40.9755 18.3594 41.4073V43.7511H17.1875C16.7561 43.7511 16.4062 44.1005 16.4062 44.5323V47.6573C16.4062 48.0892 16.7561 48.4386 17.1875 48.4386H32.8125C33.2439 48.4386 33.5938 48.0892 33.5938 47.6573V44.5323C33.5938 44.1005 33.2439 43.7511 32.8125 43.7511ZM19.9219 42.1886H30.0781V43.7511H19.9219V42.1886ZM32.0312 46.8761H17.9688V45.3136H19.1406H30.8594H32.0312V46.8761Z" fill="#0C0C15"/>
<path d="M44.5138 36.3887L31.5769 30.9295L33.0735 27.7881C33.5366 26.8161 33.1223 25.6485 32.1499 25.1846L25.8023 22.1611C25.3304 21.9364 24.8002 21.9089 24.3092 22.0829C23.8179 22.2572 23.4234 22.6127 23.1988 23.0842L19.3352 31.1962L18.1592 33.6635C17.9345 34.135 17.907 34.666 18.0813 35.1574C18.2557 35.6487 18.6116 36.0431 19.0827 36.2667L25.4307 39.2917C25.7012 39.4199 25.9862 39.4809 26.2669 39.4809C26.9974 39.4809 27.6993 39.0697 28.0339 38.3678L29.2096 35.8989L29.5299 35.2265L41.951 41.8476L42.0514 41.8956C42.4687 42.094 42.9089 42.1878 43.343 42.1878C44.4707 42.1878 45.5544 41.5531 46.0705 40.4689C46.4245 39.7266 46.4589 38.8599 46.1651 38.0916C45.8676 37.3134 45.2801 36.7084 44.5138 36.3887ZM24.6094 23.7564C24.7014 23.5614 24.9348 23.4783 25.1301 23.5717L31.4774 26.5949C31.6723 26.688 31.7555 26.9214 31.6628 27.1152L28.135 34.5218L21.082 31.1626L24.6094 23.7564ZM26.6232 37.6957C26.5305 37.8902 26.2967 37.9726 26.1025 37.881L19.7545 34.856C19.6599 34.811 19.5885 34.7324 19.5538 34.6347C19.5191 34.5363 19.5248 34.4303 19.5698 34.3357L20.4098 32.5733L27.4632 35.9325L26.6232 37.6957ZM44.6599 39.7976C44.3162 40.5208 43.4483 40.829 42.7243 40.485L30.2029 33.8146L30.9044 32.3413L43.9091 37.8292C44.2795 37.984 44.5622 38.2755 44.7056 38.6493C44.8495 39.0255 44.8334 39.4336 44.6599 39.7976Z" fill="#0C0C15"/>
<path d="M47.797 3.96685C46.8156 3.78751 45.7177 3.76615 44.5312 3.88908V2.634C44.5312 2.23536 44.231 1.90043 43.8343 1.85733C32.592 0.635097 26.6172 3.54967 25.0012 4.50687C23.3883 3.55115 17.413 0.633333 6.1657 1.85618C5.76897 1.89929 5.46875 2.23422 5.46875 2.63285V3.88918C4.2819 3.7662 3.18327 3.78723 2.20299 3.96685C1.8322 4.03514 1.5625 4.35824 1.5625 4.73552V32.056C1.5625 32.2826 1.66054 32.4977 1.83182 32.6457C2.00233 32.7945 2.23045 32.8609 2.45361 32.8296C2.52266 32.8189 9.48944 31.8569 16.2373 33.2813C16.2918 33.2927 16.346 33.2981 16.3994 33.2981C16.761 33.2981 17.0853 33.0455 17.1631 32.6778C17.252 32.2559 16.9823 31.8416 16.56 31.7523C10.9142 30.5614 5.26733 30.9566 3.125 31.1771V5.41453C3.84102 5.3432 4.6257 5.35731 5.46875 5.4542V28.5549C5.46875 28.5599 5.47171 28.5651 5.4718 28.5701C5.47395 28.675 5.49512 28.775 5.53465 28.8658C5.54657 28.8932 5.56955 28.9138 5.58457 28.9398C5.62215 29.0043 5.66044 29.0676 5.71427 29.1187C5.71961 29.1238 5.72152 29.1313 5.72701 29.1362C5.75533 29.1618 5.79257 29.1716 5.8239 29.1925C5.87301 29.2254 5.9196 29.2595 5.97572 29.2808C6.02498 29.2995 6.07624 29.3033 6.12845 29.3116C6.16965 29.3183 6.20689 29.3361 6.25 29.3361C6.26411 29.3361 6.27584 29.3288 6.28977 29.3281C6.30379 29.3273 6.3168 29.3339 6.33087 29.3323C6.39038 29.3262 12.3428 28.7273 17.7322 29.9579C18.1557 30.0563 18.5719 29.7916 18.668 29.3704C18.7637 28.9501 18.5005 28.5312 18.0801 28.4351C13.6211 27.4166 8.92715 27.5814 7.03125 27.7088V4.77443V3.33857C17.3719 2.35786 22.8922 5.09052 24.2188 5.86285V19.5323C24.2188 19.9638 24.5686 20.3136 25 20.3136C25.4314 20.3136 25.7812 19.9638 25.7812 19.5323V5.86352C27.1244 5.08265 32.6504 2.36201 42.9688 3.33972V4.77443V27.7095C41.6573 27.6226 39.0011 27.5188 36.005 27.8018C35.5755 27.8423 35.26 28.223 35.3004 28.6525C35.3102 28.7563 35.3408 28.8526 35.3862 28.9396C35.4134 28.9927 35.4549 29.0337 35.4928 29.0788C35.5163 29.1063 35.5337 29.1388 35.5608 29.1628C35.6121 29.2092 35.6729 29.2396 35.7348 29.2706C35.7591 29.2827 35.7797 29.2996 35.8053 29.3092C35.859 29.3292 35.916 29.3339 35.9743 29.3411C36.0094 29.3459 36.0413 29.3605 36.0775 29.3605C36.1019 29.3605 36.1267 29.3598 36.1515 29.3567C40.1615 28.9798 43.6348 29.3285 43.6695 29.3331C43.8885 29.3529 44.109 29.2842 44.273 29.1355C44.4374 28.9875 44.5312 28.7769 44.5312 28.5556V5.4542C45.3754 5.35655 46.1597 5.34281 46.875 5.41453V31.1786C45.3869 31.0275 42.197 30.7941 38.4743 31.0657C38.044 31.097 37.7205 31.4716 37.7518 31.9019C37.7831 32.3314 38.1535 32.6564 38.588 32.6236C43.4624 32.2666 47.5067 32.8235 47.5475 32.8296C47.5838 32.835 47.62 32.8372 47.6562 32.8372C47.8432 32.8372 48.0255 32.7701 48.1686 32.6457C48.3395 32.497 48.4375 32.2818 48.4375 32.056V4.73552C48.4375 4.35824 48.1678 4.03514 47.797 3.96685Z" fill="#0C0C15"/>
<path d="M29.6875 10.9386H36.7188C37.1502 10.9386 37.5 10.5888 37.5 10.1573C37.5 9.72591 37.1502 9.3761 36.7188 9.3761H29.6875C29.2561 9.3761 28.9062 9.72591 28.9062 10.1573C28.9062 10.5888 29.2561 10.9386 29.6875 10.9386Z" fill="#0C0C15"/>
<path d="M29.6875 14.8448H39.8438C40.2752 14.8448 40.625 14.495 40.625 14.0636C40.625 13.6322 40.2752 13.2823 39.8438 13.2823H29.6875C29.2561 13.2823 28.9062 13.6322 28.9062 14.0636C28.9062 14.495 29.2561 14.8448 29.6875 14.8448Z" fill="#0C0C15"/>
<path d="M20.3125 10.9386C20.7439 10.9386 21.0938 10.5888 21.0938 10.1573C21.0938 9.72591 20.7439 9.3761 20.3125 9.3761H13.2812C12.8498 9.3761 12.5 9.72591 12.5 10.1573C12.5 10.5888 12.8498 10.9386 13.2812 10.9386H20.3125Z" fill="#0C0C15"/>
<path d="M9.375 14.0636C9.375 14.495 9.72481 14.8448 10.1562 14.8448H20.3125C20.7439 14.8448 21.0938 14.495 21.0938 14.0636C21.0938 13.6322 20.7439 13.2823 20.3125 13.2823H10.1562C9.72481 13.2823 9.375 13.6322 9.375 14.0636Z" fill="#0C0C15"/>
</g>
<defs>
<clipPath id="clip0_0_1">
<rect width="1920" height="8089" fill="white" transform="translate(-1332 -2183)"/>
</clipPath>
</defs>
</svg>
