<svg width="50" height="50" viewBox="0 0 50 50" fill="none" xmlns="http://www.w3.org/2000/svg">
<rect width="50" height="50" fill="#1E1E1E"/>
<g clip-path="url(#clip0_0_1)">
<rect width="1920" height="8089" transform="translate(-996 -2183)" fill="white"/>
<rect x="-23.5" y="-31.5" width="311" height="311" rx="3.5" fill="#EFF5F5" stroke="#E4D7D7"/>
<path d="M50.0029 26.6683C49.9995 26.1965 49.8627 25.7354 49.6083 25.3381C49.3539 24.9408 48.9923 24.6235 48.5652 24.4231C48.1381 24.2226 47.6631 24.1471 47.1949 24.2052C46.7267 24.2633 46.2845 24.4527 45.9194 24.7515C44.524 23.2519 42.8343 22.056 40.9559 21.2387C39.0775 20.4214 37.0508 20.0002 35.0023 20.0013V18.3346H37.5024C37.6704 18.3342 37.8344 18.2829 37.9728 18.1877C38.1112 18.0924 38.2175 17.9575 38.2779 17.8007C38.3383 17.6439 38.3499 17.4725 38.3111 17.309C38.2724 17.1455 38.1851 16.9976 38.0607 16.8845L19.7266 0.21715C19.5735 0.0789439 19.3745 0.00244141 19.1683 0.00244141C18.962 0.00244141 18.763 0.0789439 18.6099 0.21715L0.275772 16.8845C0.151433 16.9976 0.0641598 17.1455 0.0254027 17.309C-0.0133544 17.4725 -0.0017852 17.6439 0.0585928 17.8007C0.118971 17.9575 0.225337 18.0924 0.363737 18.1877C0.502137 18.2829 0.666105 18.3342 0.83413 18.3346H3.33424V35.8354C3.33424 36.0564 3.42204 36.2684 3.57833 36.4246C3.73461 36.5809 3.94658 36.6687 4.16761 36.6687H20.1183C20.5008 40.0761 22.039 43.2497 24.4768 45.6608L21.6184 45.8358C21.4061 45.8486 21.2068 45.942 21.0611 46.0969C20.9155 46.2518 20.8346 46.4565 20.835 46.6692V49.1693C20.835 49.3903 20.9228 49.6023 21.0791 49.7586C21.2354 49.9148 21.4473 50.0026 21.6684 50.0026H48.3362C48.5572 50.0026 48.7692 49.9148 48.9255 49.7586C49.0818 49.6023 49.1696 49.3903 49.1696 49.1693V46.6692C49.1699 46.4565 49.089 46.2518 48.9434 46.0969C48.7978 45.942 48.5984 45.8486 48.3862 45.8358L45.5444 45.6608C47.7162 43.5132 49.1807 40.7539 49.7422 37.7517C50.3036 34.7494 49.9352 31.6473 48.6862 28.8601C49.0826 28.6471 49.4142 28.331 49.646 27.9452C49.8777 27.5595 50.001 27.1183 50.0029 26.6683ZM47.5028 25.8349C47.6676 25.8349 47.8288 25.8838 47.9658 25.9754C48.1029 26.0669 48.2097 26.1971 48.2728 26.3494C48.3358 26.5017 48.3523 26.6692 48.3202 26.8309C48.288 26.9925 48.2087 27.141 48.0921 27.2576C47.9756 27.3741 47.8271 27.4535 47.6654 27.4857C47.5037 27.5178 47.3362 27.5013 47.1839 27.4382C47.0316 27.3752 46.9015 27.2683 46.8099 27.1313C46.7183 26.9942 46.6695 26.8331 46.6695 26.6683C46.6695 26.4473 46.7573 26.2353 46.9135 26.079C47.0698 25.9227 47.2818 25.8349 47.5028 25.8349ZM44.6777 25.8349H38.2191C38.0272 25.1288 37.6082 24.5054 37.0269 24.0609C36.4455 23.6165 35.7341 23.3757 35.0023 23.3757C34.2705 23.3757 33.559 23.6165 32.9777 24.0609C32.3963 24.5054 31.9774 25.1288 31.7855 25.8349H25.3269C25.4102 25.7433 25.4935 25.6516 25.5935 25.5599C26.8538 24.3051 28.3525 23.3151 30.0011 22.6481C31.6498 21.9812 33.4153 21.6508 35.1936 21.6764C36.9719 21.7021 38.727 22.0832 40.3558 22.7974C41.9846 23.5115 43.4541 24.5443 44.6777 25.8349ZM40.0025 36.6687H45.0027V39.1688C45.0027 39.8319 44.7393 40.4678 44.2704 40.9367C43.8016 41.4055 43.1657 41.6689 42.5026 41.6689C41.8395 41.6689 41.2036 41.4055 40.7348 40.9367C40.2659 40.4678 40.0025 39.8319 40.0025 39.1688V36.6687ZM40.3608 35.002L42.5026 29.1101L44.6444 35.002H40.3608ZM35.0023 28.335C34.6726 28.335 34.3504 28.2373 34.0763 28.0541C33.8022 27.871 33.5886 27.6107 33.4624 27.3061C33.3363 27.0016 33.3033 26.6664 33.3676 26.3431C33.4319 26.0198 33.5906 25.7228 33.8237 25.4897C34.0568 25.2566 34.3538 25.0979 34.6771 25.0336C35.0004 24.9693 35.3356 25.0023 35.6401 25.1284C35.9447 25.2546 36.205 25.4682 36.3881 25.7423C36.5713 26.0164 36.669 26.3386 36.669 26.6683C36.669 27.1103 36.4934 27.5343 36.1808 27.8469C35.8683 28.1594 35.4443 28.335 35.0023 28.335ZM25.0018 36.6687H30.0021V39.1688C30.0021 39.8319 29.7387 40.4678 29.2698 40.9367C28.8009 41.4055 28.165 41.6689 27.502 41.6689C26.8389 41.6689 26.203 41.4055 25.7341 40.9367C25.2653 40.4678 25.0018 39.8319 25.0018 39.1688V36.6687ZM25.3602 35.002L27.502 29.1101L29.6437 35.002H25.3602ZM22.5017 27.5017C22.3369 27.5017 22.1758 27.4528 22.0387 27.3612C21.9017 27.2696 21.7949 27.1395 21.7318 26.9872C21.6687 26.8349 21.6522 26.6674 21.6844 26.5057C21.7165 26.3441 21.7959 26.1956 21.9125 26.079C22.029 25.9625 22.1775 25.8831 22.3392 25.8509C22.5008 25.8188 22.6684 25.8353 22.8207 25.8984C22.9729 25.9614 23.1031 26.0683 23.1947 26.2053C23.2862 26.3424 23.3351 26.5035 23.3351 26.6683C23.3351 26.8893 23.2473 27.1013 23.091 27.2576C22.9347 27.4139 22.7228 27.5017 22.5017 27.5017ZM14.168 35.002V33.3353H12.5013V35.002H5.00098V17.5012C5.00098 17.2802 4.91318 17.0682 4.75689 16.912C4.6006 16.7557 4.38863 16.6679 4.16761 16.6679H2.99256L19.1683 1.95889L35.344 16.6679H34.1689C33.9479 16.6679 33.7359 16.7557 33.5796 16.912C33.4233 17.0682 33.3355 17.2802 33.3355 17.5012V20.1097C30.6048 20.4148 28.0103 21.4641 25.8352 23.1431V19.168C25.8352 18.9469 25.7474 18.735 25.5911 18.5787C25.4348 18.4224 25.2229 18.3346 25.0018 18.3346H13.3347C13.1136 18.3346 12.9017 18.4224 12.7454 18.5787C12.5891 18.735 12.5013 18.9469 12.5013 19.168V31.6685H14.168V20.0013H24.1685V24.6349L24.0685 24.7349C23.6264 24.3724 23.0734 24.1724 22.5017 24.1682C21.9484 24.1725 21.4121 24.3602 20.9769 24.702C20.5417 25.0437 20.2322 25.5202 20.0968 26.0568C19.9615 26.5934 20.008 27.1597 20.2291 27.6669C20.4501 28.1742 20.8332 28.5939 21.3184 28.8601C20.4509 30.7915 20.0022 32.8847 20.0016 35.002H14.168ZM26.3769 45.1608C25.0007 43.996 23.8742 42.5651 23.0651 40.954C22.2559 39.3428 21.7808 37.5848 21.6684 35.7854C21.6684 35.527 21.6684 35.2687 21.6684 35.002C21.6608 32.954 22.1346 30.9329 23.0518 29.1017C23.4623 29.0082 23.8425 28.8125 24.1572 28.5327C24.4719 28.253 24.7108 27.8984 24.8518 27.5017H26.3102C26.3102 27.5017 23.3351 35.7354 23.3351 35.8354V39.1688C23.3351 40.274 23.7741 41.3338 24.5555 42.1152C25.337 42.8967 26.3968 43.3357 27.502 43.3357C28.6071 43.3357 29.6669 42.8967 30.4484 42.1152C31.2298 41.3338 31.6688 40.274 31.6688 39.1688V35.8354C31.6688 35.7354 28.6937 27.5017 28.6937 27.5017H31.7855C31.9164 28.0048 32.1632 28.4702 32.5062 28.8609C32.8491 29.2516 33.2787 29.5567 33.7606 29.7518L31.7438 45.2024L26.8186 45.5108C26.6686 45.3941 26.5186 45.2858 26.3769 45.1608ZM35.0023 33.0936L36.569 45.1024L35.0023 45.0024L33.4355 45.1024L35.0023 33.0936ZM47.5028 48.3359H22.5017V47.4525L35.0023 46.6692L47.5028 47.4525V48.3359ZM43.1776 45.5108L38.2608 45.2024L36.244 29.7518C36.7259 29.5567 37.1554 29.2516 37.4984 28.8609C37.8413 28.4702 38.0881 28.0048 38.2191 27.5017H41.3109C41.3109 27.5017 38.3358 35.7354 38.3358 35.8354V39.1688C38.3358 40.274 38.7748 41.3338 39.5562 42.1152C40.3376 42.8967 41.3975 43.3357 42.5026 43.3357C43.6077 43.3357 44.6676 42.8967 45.449 42.1152C46.2304 41.3338 46.6695 40.274 46.6695 39.1688V35.8354C46.6695 35.7354 43.6943 27.5017 43.6943 27.5017H45.1527C45.2938 27.8984 45.5327 28.253 45.8474 28.5327C46.1621 28.8125 46.5423 29.0082 46.9528 29.1017C47.8699 30.9329 48.3438 32.954 48.3362 35.002C48.3324 37.0306 47.8658 39.0317 46.9719 40.8528C46.0779 42.6739 44.7803 44.267 43.1776 45.5108Z" fill="#0C0C15"/>
</g>
<defs>
<clipPath id="clip0_0_1">
<rect width="1920" height="8089" fill="white" transform="translate(-996 -2183)"/>
</clipPath>
</defs>
</svg>
